<svg width="28" height="26" viewBox="0 0 28 26" fill="none" xmlns="http://www.w3.org/2000/svg">
<mask id="mask0_2478_1320" style="mask-type:alpha" maskUnits="userSpaceOnUse" x="0" y="0" width="28" height="26">
<rect width="28" height="26" fill="#D9D9D9"/>
</mask>
<g mask="url(#mask0_2478_1320)">
<path d="M2 23.999C3.44454 23.999 4.87494 23.7145 6.20952 23.1617C7.5441 22.6089 8.75673 21.7986 9.77817 20.7772C10.7996 19.7558 11.6099 18.5431 12.1627 17.2085C12.7155 15.874 13 14.4436 13 12.999C13 11.5545 12.7155 10.1241 12.1627 8.78951C11.6099 7.45492 10.7996 6.24229 9.77817 5.22085C8.75673 4.19941 7.5441 3.38915 6.20952 2.83635C4.87494 2.28355 3.44454 1.99902 2 1.99902L2 12.999L2 23.999Z" fill="black"/>
<path d="M16 23.999C17.4445 23.999 18.8749 23.7145 20.2095 23.1617C21.5441 22.6089 22.7567 21.7986 23.7782 20.7772C24.7996 19.7558 25.6099 18.5431 26.1627 17.2085C26.7155 15.874 27 14.4436 27 12.999C27 11.5545 26.7155 10.1241 26.1627 8.78951C25.6099 7.45492 24.7996 6.24229 23.7782 5.22085C22.7567 4.19941 21.5441 3.38915 20.2095 2.83635C18.8749 2.28355 17.4445 1.99902 16 1.99902L16 12.999L16 23.999Z" fill="black"/>
</g>
</svg>
